<svg xmlns="http://www.w3.org/2000/svg" xmlns:rdkit="http://www.rdkit.org/xml" xmlns:xlink="http://www.w3.org/1999/xlink" version="1.1" baseProfile="full" xml:space="preserve" width="300px" height="300px" viewBox="0 0 300 300">
<!-- END OF HEADER -->
<rect style="opacity:1.0;fill:#FFFFFF;stroke:none" width="300.0" height="300.0" x="0.0" y="0.0"> </rect>
<path class="bond-0 atom-0 atom-1" d="M 52.2,97.3 L 57.4,121.6" style="fill:none;fill-rule:evenodd;stroke:#FF0000;stroke-width:2.0px;stroke-linecap:butt;stroke-linejoin:miter;stroke-opacity:1"/>
<path class="bond-0 atom-0 atom-1" d="M 57.4,121.6 L 62.6,145.8" style="fill:none;fill-rule:evenodd;stroke:#000000;stroke-width:2.0px;stroke-linecap:butt;stroke-linejoin:miter;stroke-opacity:1"/>
<path class="bond-0 atom-0 atom-1" d="M 43.8,99.1 L 49.0,123.4" style="fill:none;fill-rule:evenodd;stroke:#FF0000;stroke-width:2.0px;stroke-linecap:butt;stroke-linejoin:miter;stroke-opacity:1"/>
<path class="bond-0 atom-0 atom-1" d="M 49.0,123.4 L 54.1,147.6" style="fill:none;fill-rule:evenodd;stroke:#000000;stroke-width:2.0px;stroke-linecap:butt;stroke-linejoin:miter;stroke-opacity:1"/>
<path class="bond-1 atom-1 atom-2" d="M 57.8,144.2 L 15.0,182.9" style="fill:none;fill-rule:evenodd;stroke:#000000;stroke-width:2.0px;stroke-linecap:butt;stroke-linejoin:miter;stroke-opacity:1"/>
<path class="bond-2 atom-1 atom-3" d="M 57.8,144.2 L 80.6,151.6" style="fill:none;fill-rule:evenodd;stroke:#000000;stroke-width:2.0px;stroke-linecap:butt;stroke-linejoin:miter;stroke-opacity:1"/>
<path class="bond-2 atom-1 atom-3" d="M 80.6,151.6 L 103.4,159.0" style="fill:none;fill-rule:evenodd;stroke:#FF0000;stroke-width:2.0px;stroke-linecap:butt;stroke-linejoin:miter;stroke-opacity:1"/>
<path class="bond-3 atom-3 atom-4" d="M 122.2,153.5 L 138.9,138.4" style="fill:none;fill-rule:evenodd;stroke:#FF0000;stroke-width:2.0px;stroke-linecap:butt;stroke-linejoin:miter;stroke-opacity:1"/>
<path class="bond-3 atom-3 atom-4" d="M 138.9,138.4 L 155.6,123.4" style="fill:none;fill-rule:evenodd;stroke:#000000;stroke-width:2.0px;stroke-linecap:butt;stroke-linejoin:miter;stroke-opacity:1"/>
<path class="bond-4 atom-4 atom-5" d="M 155.6,123.4 L 143.5,66.9" style="fill:none;fill-rule:evenodd;stroke:#000000;stroke-width:2.0px;stroke-linecap:butt;stroke-linejoin:miter;stroke-opacity:1"/>
<path class="bond-4 atom-4 atom-5" d="M 163.0,116.7 L 153.1,70.0" style="fill:none;fill-rule:evenodd;stroke:#000000;stroke-width:2.0px;stroke-linecap:butt;stroke-linejoin:miter;stroke-opacity:1"/>
<path class="bond-5 atom-5 atom-6" d="M 143.5,66.9 L 186.4,28.2" style="fill:none;fill-rule:evenodd;stroke:#000000;stroke-width:2.0px;stroke-linecap:butt;stroke-linejoin:miter;stroke-opacity:1"/>
<path class="bond-6 atom-6 atom-7" d="M 186.4,28.2 L 241.3,46.0" style="fill:none;fill-rule:evenodd;stroke:#000000;stroke-width:2.0px;stroke-linecap:butt;stroke-linejoin:miter;stroke-opacity:1"/>
<path class="bond-6 atom-6 atom-7" d="M 188.5,38.0 L 233.9,52.7" style="fill:none;fill-rule:evenodd;stroke:#000000;stroke-width:2.0px;stroke-linecap:butt;stroke-linejoin:miter;stroke-opacity:1"/>
<path class="bond-7 atom-7 atom-8" d="M 241.3,46.0 L 253.4,102.5" style="fill:none;fill-rule:evenodd;stroke:#000000;stroke-width:2.0px;stroke-linecap:butt;stroke-linejoin:miter;stroke-opacity:1"/>
<path class="bond-8 atom-8 atom-9" d="M 253.4,102.5 L 210.5,141.1" style="fill:none;fill-rule:evenodd;stroke:#000000;stroke-width:2.0px;stroke-linecap:butt;stroke-linejoin:miter;stroke-opacity:1"/>
<path class="bond-8 atom-8 atom-9" d="M 243.9,99.4 L 208.4,131.4" style="fill:none;fill-rule:evenodd;stroke:#000000;stroke-width:2.0px;stroke-linecap:butt;stroke-linejoin:miter;stroke-opacity:1"/>
<path class="bond-9 atom-9 atom-10" d="M 210.5,141.1 L 222.6,197.6" style="fill:none;fill-rule:evenodd;stroke:#000000;stroke-width:2.0px;stroke-linecap:butt;stroke-linejoin:miter;stroke-opacity:1"/>
<path class="bond-10 atom-10 atom-11" d="M 218.9,200.9 L 242.8,208.7" style="fill:none;fill-rule:evenodd;stroke:#000000;stroke-width:2.0px;stroke-linecap:butt;stroke-linejoin:miter;stroke-opacity:1"/>
<path class="bond-10 atom-10 atom-11" d="M 242.8,208.7 L 266.8,216.4" style="fill:none;fill-rule:evenodd;stroke:#FF0000;stroke-width:2.0px;stroke-linecap:butt;stroke-linejoin:miter;stroke-opacity:1"/>
<path class="bond-10 atom-10 atom-11" d="M 221.5,192.7 L 245.5,200.4" style="fill:none;fill-rule:evenodd;stroke:#000000;stroke-width:2.0px;stroke-linecap:butt;stroke-linejoin:miter;stroke-opacity:1"/>
<path class="bond-10 atom-10 atom-11" d="M 245.5,200.4 L 269.4,208.2" style="fill:none;fill-rule:evenodd;stroke:#FF0000;stroke-width:2.0px;stroke-linecap:butt;stroke-linejoin:miter;stroke-opacity:1"/>
<path class="bond-11 atom-10 atom-12" d="M 222.6,197.6 L 205.9,212.7" style="fill:none;fill-rule:evenodd;stroke:#000000;stroke-width:2.0px;stroke-linecap:butt;stroke-linejoin:miter;stroke-opacity:1"/>
<path class="bond-11 atom-10 atom-12" d="M 205.9,212.7 L 189.1,227.7" style="fill:none;fill-rule:evenodd;stroke:#FF0000;stroke-width:2.0px;stroke-linecap:butt;stroke-linejoin:miter;stroke-opacity:1"/>
<path class="bond-12 atom-9 atom-4" d="M 210.5,141.1 L 155.6,123.4" style="fill:none;fill-rule:evenodd;stroke:#000000;stroke-width:2.0px;stroke-linecap:butt;stroke-linejoin:miter;stroke-opacity:1"/>
<path d="M 55.7,146.2 L 57.8,144.2 L 59.0,144.6" style="fill:none;stroke:#000000;stroke-width:2.0px;stroke-linecap:butt;stroke-linejoin:miter;stroke-opacity:1;"/>
<path d="M 144.1,69.7 L 143.5,66.9 L 145.7,65.0" style="fill:none;stroke:#000000;stroke-width:2.0px;stroke-linecap:butt;stroke-linejoin:miter;stroke-opacity:1;"/>
<path d="M 184.3,30.2 L 186.4,28.2 L 189.1,29.1" style="fill:none;stroke:#000000;stroke-width:2.0px;stroke-linecap:butt;stroke-linejoin:miter;stroke-opacity:1;"/>
<path d="M 238.6,45.1 L 241.3,46.0 L 241.9,48.8" style="fill:none;stroke:#000000;stroke-width:2.0px;stroke-linecap:butt;stroke-linejoin:miter;stroke-opacity:1;"/>
<path d="M 252.8,99.6 L 253.4,102.5 L 251.2,104.4" style="fill:none;stroke:#000000;stroke-width:2.0px;stroke-linecap:butt;stroke-linejoin:miter;stroke-opacity:1;"/>
<path d="M 222.0,194.7 L 222.6,197.6 L 221.7,198.3" style="fill:none;stroke:#000000;stroke-width:2.0px;stroke-linecap:butt;stroke-linejoin:miter;stroke-opacity:1;"/>
<path class="atom-0" d="M 38.3 87.9 Q 38.3 83.9, 40.2 81.7 Q 42.2 79.5, 45.8 79.5 Q 49.4 79.5, 51.3 81.7 Q 53.3 83.9, 53.3 87.9 Q 53.3 91.8, 51.3 94.1 Q 49.4 96.3, 45.8 96.3 Q 42.2 96.3, 40.2 94.1 Q 38.3 91.8, 38.3 87.9 M 45.8 94.5 Q 48.3 94.5, 49.6 92.8 Q 51.0 91.1, 51.0 87.9 Q 51.0 84.6, 49.6 83.0 Q 48.3 81.4, 45.8 81.4 Q 43.3 81.4, 41.9 83.0 Q 40.6 84.6, 40.6 87.9 Q 40.6 91.2, 41.9 92.8 Q 43.3 94.5, 45.8 94.5 " fill="#FF0000"/>
<path class="atom-3" d="M 105.3 162.1 Q 105.3 158.1, 107.2 156.0 Q 109.1 153.8, 112.8 153.8 Q 116.4 153.8, 118.3 156.0 Q 120.3 158.1, 120.3 162.1 Q 120.3 166.0, 118.3 168.3 Q 116.3 170.5, 112.8 170.5 Q 109.2 170.5, 107.2 168.3 Q 105.3 166.1, 105.3 162.1 M 112.8 168.7 Q 115.3 168.7, 116.6 167.0 Q 118.0 165.3, 118.0 162.1 Q 118.0 158.9, 116.6 157.2 Q 115.3 155.6, 112.8 155.6 Q 110.3 155.6, 108.9 157.2 Q 107.6 158.8, 107.6 162.1 Q 107.6 165.4, 108.9 167.0 Q 110.3 168.7, 112.8 168.7 " fill="#FF0000"/>
<path class="atom-11" d="M 270.0 215.4 Q 270.0 211.5, 271.9 209.3 Q 273.9 207.1, 277.5 207.1 Q 281.1 207.1, 283.1 209.3 Q 285.0 211.5, 285.0 215.4 Q 285.0 219.4, 283.0 221.6 Q 281.1 223.9, 277.5 223.9 Q 273.9 223.9, 271.9 221.6 Q 270.0 219.4, 270.0 215.4 M 277.5 222.0 Q 280.0 222.0, 281.3 220.4 Q 282.7 218.7, 282.7 215.4 Q 282.7 212.2, 281.3 210.6 Q 280.0 208.9, 277.5 208.9 Q 275.0 208.9, 273.6 210.5 Q 272.3 212.2, 272.3 215.4 Q 272.3 218.7, 273.6 220.4 Q 275.0 222.0, 277.5 222.0 " fill="#FF0000"/>
<path class="atom-12" d="M 156.1 228.2 L 158.3 228.2 L 158.3 235.1 L 166.7 235.1 L 166.7 228.2 L 168.9 228.2 L 168.9 244.5 L 166.7 244.5 L 166.7 237.0 L 158.3 237.0 L 158.3 244.5 L 156.1 244.5 L 156.1 228.2 " fill="#FF0000"/>
<path class="atom-12" d="M 172.2 236.3 Q 172.2 232.4, 174.2 230.2 Q 176.1 228.0, 179.7 228.0 Q 183.4 228.0, 185.3 230.2 Q 187.2 232.4, 187.2 236.3 Q 187.2 240.3, 185.3 242.5 Q 183.3 244.8, 179.7 244.8 Q 176.1 244.8, 174.2 242.5 Q 172.2 240.3, 172.2 236.3 M 179.7 242.9 Q 182.2 242.9, 183.6 241.2 Q 184.9 239.6, 184.9 236.3 Q 184.9 233.1, 183.6 231.5 Q 182.2 229.8, 179.7 229.8 Q 177.2 229.8, 175.9 231.4 Q 174.5 233.1, 174.5 236.3 Q 174.5 239.6, 175.9 241.2 Q 177.2 242.9, 179.7 242.9 " fill="#FF0000"/>
<path class="legend" d="M 135.5 281.1 L 134.3 277.8 L 129.8 277.8 L 128.7 281.1 L 127.1 281.1 L 131.0 269.8 L 132.9 269.8 L 137.0 281.1 L 135.5 281.1 M 130.2 276.5 L 133.8 276.5 L 132.0 271.3 L 130.2 276.5 " fill="#000000"/>
<path class="legend" d="M 138.2 279.4 Q 138.9 279.7, 139.4 279.8 Q 139.9 280.0, 140.5 280.0 Q 141.2 280.0, 141.6 279.7 Q 142.0 279.4, 142.0 278.8 Q 142.0 278.4, 141.8 278.2 Q 141.6 277.9, 141.3 277.8 Q 141.1 277.7, 140.3 277.5 Q 140.2 277.4, 139.5 277.2 Q 138.8 276.9, 138.4 276.4 Q 138.0 275.8, 138.0 275.0 Q 138.0 274.1, 138.7 273.4 Q 139.5 272.7, 141.0 272.7 Q 141.6 272.7, 142.2 272.9 Q 142.7 273.0, 143.3 273.2 L 142.9 274.4 Q 142.4 274.2, 141.9 274.1 Q 141.5 274.0, 141.0 274.0 Q 140.2 274.0, 139.9 274.3 Q 139.5 274.6, 139.5 275.0 Q 139.5 275.5, 139.8 275.7 Q 140.1 275.9, 140.8 276.2 Q 140.9 276.2, 141.1 276.3 L 141.5 276.4 Q 142.1 276.6, 142.5 276.9 Q 142.9 277.1, 143.2 277.5 Q 143.5 278.0, 143.5 278.7 Q 143.5 279.9, 142.7 280.6 Q 141.8 281.2, 140.5 281.2 Q 139.7 281.2, 139.0 281.1 Q 138.4 280.9, 137.7 280.6 L 138.2 279.4 " fill="#000000"/>
<path class="legend" d="M 148.7 272.7 Q 150.4 272.7, 151.4 273.8 Q 152.3 274.8, 152.3 276.8 Q 152.3 278.9, 151.2 280.1 Q 150.1 281.2, 148.1 281.2 Q 147.2 281.2, 146.4 281.0 L 146.4 285.0 L 144.9 285.0 L 144.9 272.9 L 146.1 272.9 L 146.3 273.8 Q 146.7 273.3, 147.4 273.0 Q 148.0 272.7, 148.7 272.7 M 148.1 280.0 Q 149.4 280.0, 150.1 279.2 Q 150.8 278.3, 150.8 276.8 Q 150.8 275.4, 150.2 274.7 Q 149.7 273.9, 148.6 273.9 Q 147.8 273.9, 147.2 274.3 Q 146.7 274.8, 146.4 275.5 L 146.4 279.8 Q 147.2 280.0, 148.1 280.0 " fill="#000000"/>
<path class="legend" d="M 153.6 269.8 L 155.1 269.8 L 155.1 271.1 L 153.6 271.1 L 153.6 269.8 M 153.6 272.9 L 155.1 272.9 L 155.1 281.1 L 153.6 281.1 L 153.6 272.9 " fill="#000000"/>
<path class="legend" d="M 158.2 272.9 L 158.4 274.0 Q 159.3 272.7, 160.7 272.7 Q 161.1 272.7, 161.7 272.9 L 161.5 274.2 Q 160.8 274.1, 160.4 274.1 Q 159.7 274.1, 159.3 274.3 Q 158.9 274.6, 158.5 275.2 L 158.5 281.1 L 157.0 281.1 L 157.0 272.9 L 158.2 272.9 " fill="#000000"/>
<path class="legend" d="M 162.5 269.8 L 164.0 269.8 L 164.0 271.1 L 162.5 271.1 L 162.5 269.8 M 162.5 272.9 L 164.0 272.9 L 164.0 281.1 L 162.5 281.1 L 162.5 272.9 " fill="#000000"/>
<path class="legend" d="M 170.2 272.7 Q 171.5 272.7, 172.2 273.5 Q 172.9 274.2, 172.9 275.6 L 172.9 281.1 L 171.4 281.1 L 171.4 275.8 Q 171.4 274.8, 171.0 274.3 Q 170.6 273.9, 169.8 273.9 Q 169.0 273.9, 168.4 274.2 Q 167.8 274.6, 167.4 275.2 L 167.4 281.1 L 165.9 281.1 L 165.9 272.9 L 167.1 272.9 L 167.3 274.0 Q 168.4 272.7, 170.2 272.7 " fill="#000000"/>
</svg>