<svg xmlns="http://www.w3.org/2000/svg" xmlns:rdkit="http://www.rdkit.org/xml" xmlns:xlink="http://www.w3.org/1999/xlink" version="1.1" baseProfile="full" xml:space="preserve" width="400px" height="200px" viewBox="0 0 400 200">
<!-- END OF HEADER -->
<rect style="opacity:1.0;fill:#FFFFFF;stroke:none" width="400.0" height="200.0" x="0.0" y="0.0"> </rect>
<path class="bond-0 atom-0 atom-1" d="M 58.7,74.5 L 60.9,84.7" style="fill:none;fill-rule:evenodd;stroke:#FF0000;stroke-width:2.0px;stroke-linecap:butt;stroke-linejoin:miter;stroke-opacity:1"/>
<path class="bond-0 atom-0 atom-1" d="M 60.9,84.7 L 63.1,94.9" style="fill:none;fill-rule:evenodd;stroke:#000000;stroke-width:2.0px;stroke-linecap:butt;stroke-linejoin:miter;stroke-opacity:1"/>
<path class="bond-0 atom-0 atom-1" d="M 55.1,75.2 L 57.3,85.5" style="fill:none;fill-rule:evenodd;stroke:#FF0000;stroke-width:2.0px;stroke-linecap:butt;stroke-linejoin:miter;stroke-opacity:1"/>
<path class="bond-0 atom-0 atom-1" d="M 57.3,85.5 L 59.5,95.7" style="fill:none;fill-rule:evenodd;stroke:#000000;stroke-width:2.0px;stroke-linecap:butt;stroke-linejoin:miter;stroke-opacity:1"/>
<path class="bond-1 atom-1 atom-2" d="M 61.1,94.3 L 43.0,110.6" style="fill:none;fill-rule:evenodd;stroke:#000000;stroke-width:2.0px;stroke-linecap:butt;stroke-linejoin:miter;stroke-opacity:1"/>
<path class="bond-2 atom-1 atom-3" d="M 61.1,94.3 L 70.7,97.4" style="fill:none;fill-rule:evenodd;stroke:#000000;stroke-width:2.0px;stroke-linecap:butt;stroke-linejoin:miter;stroke-opacity:1"/>
<path class="bond-2 atom-1 atom-3" d="M 70.7,97.4 L 80.3,100.5" style="fill:none;fill-rule:evenodd;stroke:#FF0000;stroke-width:2.0px;stroke-linecap:butt;stroke-linejoin:miter;stroke-opacity:1"/>
<path class="bond-3 atom-3 atom-4" d="M 88.2,98.2 L 95.3,91.8" style="fill:none;fill-rule:evenodd;stroke:#FF0000;stroke-width:2.0px;stroke-linecap:butt;stroke-linejoin:miter;stroke-opacity:1"/>
<path class="bond-3 atom-3 atom-4" d="M 95.3,91.8 L 102.4,85.4" style="fill:none;fill-rule:evenodd;stroke:#000000;stroke-width:2.0px;stroke-linecap:butt;stroke-linejoin:miter;stroke-opacity:1"/>
<path class="bond-4 atom-4 atom-5" d="M 102.4,85.4 L 97.3,61.6" style="fill:none;fill-rule:evenodd;stroke:#000000;stroke-width:2.0px;stroke-linecap:butt;stroke-linejoin:miter;stroke-opacity:1"/>
<path class="bond-4 atom-4 atom-5" d="M 105.5,82.6 L 101.3,62.9" style="fill:none;fill-rule:evenodd;stroke:#000000;stroke-width:2.0px;stroke-linecap:butt;stroke-linejoin:miter;stroke-opacity:1"/>
<path class="bond-5 atom-5 atom-6" d="M 97.3,61.6 L 115.4,45.3" style="fill:none;fill-rule:evenodd;stroke:#000000;stroke-width:2.0px;stroke-linecap:butt;stroke-linejoin:miter;stroke-opacity:1"/>
<path class="bond-6 atom-6 atom-7" d="M 115.4,45.3 L 138.6,52.8" style="fill:none;fill-rule:evenodd;stroke:#000000;stroke-width:2.0px;stroke-linecap:butt;stroke-linejoin:miter;stroke-opacity:1"/>
<path class="bond-6 atom-6 atom-7" d="M 116.3,49.4 L 135.4,55.6" style="fill:none;fill-rule:evenodd;stroke:#000000;stroke-width:2.0px;stroke-linecap:butt;stroke-linejoin:miter;stroke-opacity:1"/>
<path class="bond-7 atom-7 atom-8" d="M 138.6,52.8 L 143.7,76.6" style="fill:none;fill-rule:evenodd;stroke:#000000;stroke-width:2.0px;stroke-linecap:butt;stroke-linejoin:miter;stroke-opacity:1"/>
<path class="bond-8 atom-8 atom-9" d="M 143.7,76.6 L 125.6,93.0" style="fill:none;fill-rule:evenodd;stroke:#000000;stroke-width:2.0px;stroke-linecap:butt;stroke-linejoin:miter;stroke-opacity:1"/>
<path class="bond-8 atom-8 atom-9" d="M 139.6,75.3 L 124.7,88.8" style="fill:none;fill-rule:evenodd;stroke:#000000;stroke-width:2.0px;stroke-linecap:butt;stroke-linejoin:miter;stroke-opacity:1"/>
<path class="bond-9 atom-9 atom-10" d="M 125.6,93.0 L 130.7,116.8" style="fill:none;fill-rule:evenodd;stroke:#000000;stroke-width:2.0px;stroke-linecap:butt;stroke-linejoin:miter;stroke-opacity:1"/>
<path class="bond-10 atom-10 atom-11" d="M 129.1,118.2 L 139.2,121.5" style="fill:none;fill-rule:evenodd;stroke:#000000;stroke-width:2.0px;stroke-linecap:butt;stroke-linejoin:miter;stroke-opacity:1"/>
<path class="bond-10 atom-10 atom-11" d="M 139.2,121.5 L 149.3,124.8" style="fill:none;fill-rule:evenodd;stroke:#FF0000;stroke-width:2.0px;stroke-linecap:butt;stroke-linejoin:miter;stroke-opacity:1"/>
<path class="bond-10 atom-10 atom-11" d="M 130.2,114.7 L 140.3,118.0" style="fill:none;fill-rule:evenodd;stroke:#000000;stroke-width:2.0px;stroke-linecap:butt;stroke-linejoin:miter;stroke-opacity:1"/>
<path class="bond-10 atom-10 atom-11" d="M 140.3,118.0 L 150.4,121.3" style="fill:none;fill-rule:evenodd;stroke:#FF0000;stroke-width:2.0px;stroke-linecap:butt;stroke-linejoin:miter;stroke-opacity:1"/>
<path class="bond-11 atom-10 atom-12" d="M 130.7,116.8 L 123.6,123.2" style="fill:none;fill-rule:evenodd;stroke:#000000;stroke-width:2.0px;stroke-linecap:butt;stroke-linejoin:miter;stroke-opacity:1"/>
<path class="bond-11 atom-10 atom-12" d="M 123.6,123.2 L 116.5,129.5" style="fill:none;fill-rule:evenodd;stroke:#FF0000;stroke-width:2.0px;stroke-linecap:butt;stroke-linejoin:miter;stroke-opacity:1"/>
<path class="bond-12 atom-9 atom-4" d="M 125.6,93.0 L 102.4,85.4" style="fill:none;fill-rule:evenodd;stroke:#000000;stroke-width:2.0px;stroke-linecap:butt;stroke-linejoin:miter;stroke-opacity:1"/>
<path d="M 60.2,95.1 L 61.1,94.3 L 61.6,94.4" style="fill:none;stroke:#000000;stroke-width:2.0px;stroke-linecap:butt;stroke-linejoin:miter;stroke-opacity:1;"/>
<path d="M 97.5,62.8 L 97.3,61.6 L 98.2,60.8" style="fill:none;stroke:#000000;stroke-width:2.0px;stroke-linecap:butt;stroke-linejoin:miter;stroke-opacity:1;"/>
<path d="M 114.5,46.1 L 115.4,45.3 L 116.5,45.6" style="fill:none;stroke:#000000;stroke-width:2.0px;stroke-linecap:butt;stroke-linejoin:miter;stroke-opacity:1;"/>
<path d="M 137.4,52.4 L 138.6,52.8 L 138.8,54.0" style="fill:none;stroke:#000000;stroke-width:2.0px;stroke-linecap:butt;stroke-linejoin:miter;stroke-opacity:1;"/>
<path d="M 143.4,75.4 L 143.7,76.6 L 142.8,77.4" style="fill:none;stroke:#000000;stroke-width:2.0px;stroke-linecap:butt;stroke-linejoin:miter;stroke-opacity:1;"/>
<path d="M 130.4,115.6 L 130.7,116.8 L 130.3,117.1" style="fill:none;stroke:#000000;stroke-width:2.0px;stroke-linecap:butt;stroke-linejoin:miter;stroke-opacity:1;"/>
<path class="atom-0" d="M 52.8 70.4 Q 52.8 68.8, 53.6 67.9 Q 54.4 66.9, 56.0 66.9 Q 57.5 66.9, 58.3 67.9 Q 59.1 68.8, 59.1 70.4 Q 59.1 72.1, 58.3 73.1 Q 57.5 74.0, 56.0 74.0 Q 54.5 74.0, 53.6 73.1 Q 52.8 72.1, 52.8 70.4 M 56.0 73.2 Q 57.0 73.2, 57.6 72.5 Q 58.2 71.8, 58.2 70.4 Q 58.2 69.1, 57.6 68.4 Q 57.0 67.7, 56.0 67.7 Q 54.9 67.7, 54.3 68.4 Q 53.8 69.1, 53.8 70.4 Q 53.8 71.8, 54.3 72.5 Q 54.9 73.2, 56.0 73.2 " fill="#FF0000"/>
<path class="atom-3" d="M 81.1 101.8 Q 81.1 100.1, 81.9 99.2 Q 82.7 98.3, 84.3 98.3 Q 85.8 98.3, 86.6 99.2 Q 87.4 100.1, 87.4 101.8 Q 87.4 103.5, 86.6 104.4 Q 85.8 105.4, 84.3 105.4 Q 82.7 105.4, 81.9 104.4 Q 81.1 103.5, 81.1 101.8 M 84.3 104.6 Q 85.3 104.6, 85.9 103.9 Q 86.5 103.2, 86.5 101.8 Q 86.5 100.4, 85.9 99.8 Q 85.3 99.1, 84.3 99.1 Q 83.2 99.1, 82.6 99.8 Q 82.1 100.4, 82.1 101.8 Q 82.1 103.2, 82.6 103.9 Q 83.2 104.6, 84.3 104.6 " fill="#FF0000"/>
<path class="atom-11" d="M 150.7 124.3 Q 150.7 122.7, 151.5 121.7 Q 152.3 120.8, 153.9 120.8 Q 155.4 120.8, 156.2 121.7 Q 157.0 122.7, 157.0 124.3 Q 157.0 126.0, 156.2 127.0 Q 155.4 127.9, 153.9 127.9 Q 152.3 127.9, 151.5 127.0 Q 150.7 126.0, 150.7 124.3 M 153.9 127.1 Q 154.9 127.1, 155.5 126.4 Q 156.1 125.7, 156.1 124.3 Q 156.1 123.0, 155.5 122.3 Q 154.9 121.6, 153.9 121.6 Q 152.8 121.6, 152.2 122.3 Q 151.7 123.0, 151.7 124.3 Q 151.7 125.7, 152.2 126.4 Q 152.8 127.1, 153.9 127.1 " fill="#FF0000"/>
<path class="atom-12" d="M 102.6 129.7 L 103.5 129.7 L 103.5 132.7 L 107.0 132.7 L 107.0 129.7 L 108.0 129.7 L 108.0 136.6 L 107.0 136.6 L 107.0 133.4 L 103.5 133.4 L 103.5 136.6 L 102.6 136.6 L 102.6 129.7 " fill="#FF0000"/>
<path class="atom-12" d="M 109.4 133.2 Q 109.4 131.5, 110.2 130.6 Q 111.0 129.6, 112.6 129.6 Q 114.1 129.6, 114.9 130.6 Q 115.7 131.5, 115.7 133.2 Q 115.7 134.8, 114.9 135.8 Q 114.1 136.7, 112.6 136.7 Q 111.0 136.7, 110.2 135.8 Q 109.4 134.8, 109.4 133.2 M 112.6 136.0 Q 113.6 136.0, 114.2 135.2 Q 114.8 134.5, 114.8 133.2 Q 114.8 131.8, 114.2 131.1 Q 113.6 130.4, 112.6 130.4 Q 111.5 130.4, 110.9 131.1 Q 110.4 131.8, 110.4 133.2 Q 110.4 134.5, 110.9 135.2 Q 111.5 136.0, 112.6 136.0 " fill="#FF0000"/>
<path class="legend" d="M 41.9 186.1 L 40.7 182.7 L 36.2 182.7 L 35.0 186.1 L 33.5 186.1 L 37.4 174.7 L 39.3 174.7 L 43.4 186.1 L 41.9 186.1 M 36.6 181.5 L 40.2 181.5 L 38.4 176.3 L 36.6 181.5 " fill="#000000"/>
<path class="legend" d="M 44.1 181.9 Q 44.1 180.0, 45.1 178.8 Q 46.1 177.7, 48.0 177.7 Q 49.9 177.7, 50.9 179.1 L 49.8 179.8 Q 49.5 179.3, 49.0 179.1 Q 48.6 178.9, 48.0 178.9 Q 46.9 178.9, 46.2 179.7 Q 45.6 180.4, 45.6 181.9 Q 45.6 183.5, 46.2 184.2 Q 46.9 185.0, 48.1 185.0 Q 48.8 185.0, 49.2 184.9 Q 49.7 184.7, 50.3 184.4 L 50.7 185.5 Q 49.5 186.2, 48.0 186.2 Q 46.1 186.2, 45.1 185.0 Q 44.1 183.9, 44.1 181.9 " fill="#000000"/>
<path class="legend" d="M 51.8 181.9 Q 51.8 179.9, 52.8 178.8 Q 53.8 177.7, 55.6 177.7 Q 57.4 177.7, 58.2 178.8 Q 59.0 179.9, 59.0 181.9 L 59.0 182.1 L 53.3 182.1 Q 53.3 183.5, 53.9 184.3 Q 54.6 185.0, 55.7 185.0 Q 56.4 185.0, 57.0 184.9 Q 57.6 184.7, 58.3 184.4 L 58.7 185.4 Q 57.9 185.8, 57.2 186.0 Q 56.4 186.2, 55.7 186.2 Q 53.8 186.2, 52.8 185.1 Q 51.8 184.0, 51.8 181.9 M 55.6 178.9 Q 54.7 178.9, 54.1 179.4 Q 53.5 180.0, 53.4 181.0 L 57.5 181.0 Q 57.3 179.9, 56.9 179.4 Q 56.4 178.9, 55.6 178.9 " fill="#000000"/>
<path class="legend" d="M 60.2 179.0 L 60.2 177.8 L 61.7 177.8 L 62.0 175.4 L 63.1 175.4 L 63.1 177.8 L 65.6 177.8 L 65.6 179.0 L 63.1 179.0 L 63.1 183.5 Q 63.1 185.0, 64.3 185.0 Q 64.8 185.0, 65.5 184.7 L 65.7 185.8 Q 64.9 186.2, 64.0 186.2 Q 63.0 186.2, 62.3 185.5 Q 61.6 184.9, 61.6 183.6 L 61.6 179.0 L 60.2 179.0 " fill="#000000"/>
<path class="legend" d="M 73.0 177.8 L 74.5 177.8 L 70.2 190.0 L 68.9 190.0 L 70.2 186.1 L 69.6 186.1 L 66.7 177.8 L 68.2 177.8 L 70.6 184.8 L 73.0 177.8 " fill="#000000"/>
<path class="legend" d="M 75.1 173.9 L 76.6 173.9 L 76.6 186.1 L 75.1 186.1 L 75.1 173.9 " fill="#000000"/>
<path class="legend" d="M 79.0 184.4 Q 79.7 184.7, 80.2 184.8 Q 80.7 185.0, 81.3 185.0 Q 82.0 185.0, 82.4 184.7 Q 82.8 184.4, 82.8 183.8 Q 82.8 183.4, 82.6 183.2 Q 82.4 182.9, 82.1 182.8 Q 81.9 182.7, 81.2 182.5 Q 81.0 182.4, 80.3 182.2 Q 79.6 181.9, 79.2 181.4 Q 78.8 180.8, 78.8 180.0 Q 78.8 179.0, 79.6 178.4 Q 80.3 177.7, 81.8 177.7 Q 82.4 177.7, 83.0 177.8 Q 83.5 178.0, 84.1 178.2 L 83.7 179.4 Q 83.2 179.2, 82.8 179.1 Q 82.3 178.9, 81.8 178.9 Q 81.1 178.9, 80.7 179.2 Q 80.3 179.5, 80.3 180.0 Q 80.3 180.5, 80.6 180.7 Q 80.9 180.9, 81.6 181.1 Q 81.7 181.2, 81.9 181.2 L 82.3 181.4 Q 82.9 181.6, 83.3 181.8 Q 83.8 182.1, 84.0 182.5 Q 84.3 183.0, 84.3 183.7 Q 84.3 184.9, 83.5 185.6 Q 82.7 186.2, 81.3 186.2 Q 80.5 186.2, 79.9 186.0 Q 79.2 185.9, 78.5 185.6 L 79.0 184.4 " fill="#000000"/>
<path class="legend" d="M 85.7 183.8 Q 85.7 182.5, 86.8 181.8 Q 87.8 181.1, 89.8 181.1 L 91.0 181.1 L 91.0 180.8 Q 91.0 179.7, 90.5 179.3 Q 90.1 178.9, 89.1 178.9 Q 88.4 178.9, 87.9 179.0 Q 87.4 179.1, 86.6 179.5 L 86.2 178.4 Q 87.7 177.7, 89.1 177.7 Q 90.9 177.7, 91.7 178.4 Q 92.5 179.2, 92.5 180.8 L 92.5 186.1 L 91.3 186.1 Q 91.3 186.0, 91.2 185.8 Q 91.2 185.5, 91.1 185.1 Q 89.9 186.3, 88.4 186.3 Q 87.2 186.3, 86.4 185.6 Q 85.7 184.9, 85.7 183.8 M 87.2 183.8 Q 87.2 184.4, 87.6 184.8 Q 88.0 185.1, 88.7 185.1 Q 89.3 185.1, 89.9 184.8 Q 90.6 184.5, 91.0 184.0 L 91.0 182.2 L 89.8 182.2 Q 88.5 182.2, 87.9 182.6 Q 87.2 183.0, 87.2 183.8 " fill="#000000"/>
<path class="legend" d="M 94.2 173.9 L 95.7 173.9 L 95.7 186.1 L 94.2 186.1 L 94.2 173.9 " fill="#000000"/>
<path class="legend" d="M 97.6 174.7 L 99.1 174.7 L 99.1 176.1 L 97.6 176.1 L 97.6 174.7 M 97.6 177.8 L 99.1 177.8 L 99.1 186.1 L 97.6 186.1 L 97.6 177.8 " fill="#000000"/>
<path class="legend" d="M 101.0 181.9 Q 101.0 180.0, 102.0 178.8 Q 102.9 177.7, 104.9 177.7 Q 106.8 177.7, 107.7 179.1 L 106.7 179.8 Q 106.4 179.3, 105.9 179.1 Q 105.5 178.9, 104.9 178.9 Q 103.8 178.9, 103.1 179.7 Q 102.5 180.4, 102.5 181.9 Q 102.5 183.5, 103.1 184.2 Q 103.8 185.0, 105.0 185.0 Q 105.7 185.0, 106.1 184.9 Q 106.6 184.7, 107.2 184.4 L 107.6 185.5 Q 106.4 186.2, 104.9 186.2 Q 102.9 186.2, 102.0 185.0 Q 101.0 183.9, 101.0 181.9 " fill="#000000"/>
<path class="legend" d="M 115.0 177.8 L 116.4 177.8 L 112.2 190.0 L 110.8 190.0 L 112.2 186.1 L 111.6 186.1 L 108.7 177.8 L 110.2 177.8 L 112.6 184.8 L 115.0 177.8 " fill="#000000"/>
<path class="legend" d="M 117.1 173.9 L 118.6 173.9 L 118.6 186.1 L 117.1 186.1 L 117.1 173.9 " fill="#000000"/>
<path class="legend" d="M 120.5 174.7 L 122.0 174.7 L 122.0 176.1 L 120.5 176.1 L 120.5 174.7 M 120.5 177.8 L 122.0 177.8 L 122.0 186.1 L 120.5 186.1 L 120.5 177.8 " fill="#000000"/>
<path class="legend" d="M 123.9 181.9 Q 123.9 180.0, 124.9 178.8 Q 125.8 177.7, 127.8 177.7 Q 129.7 177.7, 130.6 179.1 L 129.6 179.8 Q 129.3 179.3, 128.8 179.1 Q 128.4 178.9, 127.8 178.9 Q 126.7 178.9, 126.0 179.7 Q 125.4 180.4, 125.4 181.9 Q 125.4 183.5, 126.0 184.2 Q 126.7 185.0, 127.9 185.0 Q 128.6 185.0, 129.0 184.9 Q 129.5 184.7, 130.1 184.4 L 130.5 185.5 Q 129.3 186.2, 127.8 186.2 Q 125.8 186.2, 124.9 185.0 Q 123.9 183.9, 123.9 181.9 " fill="#000000"/>
<path class="legend" d="" fill="#000000"/>
<path class="legend" d="M 145.8 186.1 L 144.6 182.7 L 140.1 182.7 L 138.9 186.1 L 137.4 186.1 L 141.3 174.7 L 143.2 174.7 L 147.2 186.1 L 145.8 186.1 M 140.5 181.5 L 144.1 181.5 L 142.3 176.3 L 140.5 181.5 " fill="#000000"/>
<path class="legend" d="M 148.0 181.9 Q 148.0 180.0, 148.9 178.8 Q 149.9 177.7, 151.9 177.7 Q 153.8 177.7, 154.7 179.1 L 153.7 179.8 Q 153.3 179.3, 152.9 179.1 Q 152.5 178.9, 151.9 178.9 Q 150.8 178.9, 150.1 179.7 Q 149.5 180.4, 149.5 181.9 Q 149.5 183.5, 150.1 184.2 Q 150.8 185.0, 152.0 185.0 Q 152.7 185.0, 153.1 184.9 Q 153.6 184.7, 154.2 184.4 L 154.6 185.5 Q 153.4 186.2, 151.9 186.2 Q 149.9 186.2, 148.9 185.0 Q 148.0 183.9, 148.0 181.9 " fill="#000000"/>
<path class="legend" d="M 155.6 174.7 L 157.1 174.7 L 157.1 176.1 L 155.6 176.1 L 155.6 174.7 M 155.6 177.8 L 157.1 177.8 L 157.1 186.1 L 155.6 186.1 L 155.6 177.8 " fill="#000000"/>
<path class="legend" d="M 166.5 173.9 L 166.5 186.0 L 165.3 186.0 L 165.1 185.0 Q 164.2 186.2, 162.6 186.2 Q 160.9 186.2, 160.0 185.1 Q 159.0 184.1, 159.0 182.1 Q 159.0 180.0, 160.1 178.9 Q 161.3 177.7, 163.2 177.7 Q 164.1 177.7, 165.0 177.9 L 165.0 173.9 L 166.5 173.9 M 162.7 185.0 Q 163.6 185.0, 164.2 184.6 Q 164.8 184.1, 165.0 183.3 L 165.0 179.1 Q 164.2 178.9, 163.3 178.9 Q 162.0 178.9, 161.3 179.7 Q 160.6 180.6, 160.6 182.1 Q 160.6 183.5, 161.1 184.3 Q 161.7 185.0, 162.7 185.0 " fill="#000000"/>
<path class="bond-0 atom-0 atom-1" d="M 210.0,88.6 L 234.3,87.1" style="fill:none;fill-rule:evenodd;stroke:#000000;stroke-width:2.0px;stroke-linecap:butt;stroke-linejoin:miter;stroke-opacity:1"/>
<path class="bond-1 atom-1 atom-2" d="M 234.3,87.1 L 245.2,65.2" style="fill:none;fill-rule:evenodd;stroke:#000000;stroke-width:2.0px;stroke-linecap:butt;stroke-linejoin:miter;stroke-opacity:1"/>
<path class="bond-2 atom-1 atom-3" d="M 234.3,87.1 L 247.8,107.4" style="fill:none;fill-rule:evenodd;stroke:#000000;stroke-width:2.0px;stroke-linecap:butt;stroke-linejoin:miter;stroke-opacity:1"/>
<path class="bond-3 atom-3 atom-4" d="M 247.8,107.4 L 272.1,105.9" style="fill:none;fill-rule:evenodd;stroke:#000000;stroke-width:2.0px;stroke-linecap:butt;stroke-linejoin:miter;stroke-opacity:1"/>
<path class="bond-4 atom-4 atom-5" d="M 272.1,105.9 L 283.0,84.1" style="fill:none;fill-rule:evenodd;stroke:#000000;stroke-width:2.0px;stroke-linecap:butt;stroke-linejoin:miter;stroke-opacity:1"/>
<path class="bond-4 atom-4 atom-5" d="M 276.3,105.6 L 285.3,87.6" style="fill:none;fill-rule:evenodd;stroke:#000000;stroke-width:2.0px;stroke-linecap:butt;stroke-linejoin:miter;stroke-opacity:1"/>
<path class="bond-5 atom-5 atom-6" d="M 283.0,84.1 L 307.3,82.6" style="fill:none;fill-rule:evenodd;stroke:#000000;stroke-width:2.0px;stroke-linecap:butt;stroke-linejoin:miter;stroke-opacity:1"/>
<path class="bond-6 atom-6 atom-7" d="M 307.3,82.6 L 320.8,102.9" style="fill:none;fill-rule:evenodd;stroke:#000000;stroke-width:2.0px;stroke-linecap:butt;stroke-linejoin:miter;stroke-opacity:1"/>
<path class="bond-6 atom-6 atom-7" d="M 305.5,86.4 L 316.6,103.2" style="fill:none;fill-rule:evenodd;stroke:#000000;stroke-width:2.0px;stroke-linecap:butt;stroke-linejoin:miter;stroke-opacity:1"/>
<path class="bond-7 atom-7 atom-8" d="M 320.8,102.9 L 309.9,124.7" style="fill:none;fill-rule:evenodd;stroke:#000000;stroke-width:2.0px;stroke-linecap:butt;stroke-linejoin:miter;stroke-opacity:1"/>
<path class="bond-8 atom-8 atom-9" d="M 309.9,124.7 L 285.6,126.2" style="fill:none;fill-rule:evenodd;stroke:#000000;stroke-width:2.0px;stroke-linecap:butt;stroke-linejoin:miter;stroke-opacity:1"/>
<path class="bond-8 atom-8 atom-9" d="M 307.6,121.2 L 287.5,122.4" style="fill:none;fill-rule:evenodd;stroke:#000000;stroke-width:2.0px;stroke-linecap:butt;stroke-linejoin:miter;stroke-opacity:1"/>
<path class="bond-9 atom-7 atom-10" d="M 320.8,102.9 L 345.1,101.4" style="fill:none;fill-rule:evenodd;stroke:#000000;stroke-width:2.0px;stroke-linecap:butt;stroke-linejoin:miter;stroke-opacity:1"/>
<path class="bond-10 atom-10 atom-11" d="M 347.3,104.2 L 346.8,104.5" style="fill:none;fill-rule:evenodd;stroke:#000000;stroke-width:1.0px;stroke-linecap:butt;stroke-linejoin:miter;stroke-opacity:1"/>
<path class="bond-10 atom-10 atom-11" d="M 349.4,106.9 L 348.6,107.5" style="fill:none;fill-rule:evenodd;stroke:#000000;stroke-width:1.0px;stroke-linecap:butt;stroke-linejoin:miter;stroke-opacity:1"/>
<path class="bond-10 atom-10 atom-11" d="M 351.6,109.7 L 350.3,110.6" style="fill:none;fill-rule:evenodd;stroke:#000000;stroke-width:1.0px;stroke-linecap:butt;stroke-linejoin:miter;stroke-opacity:1"/>
<path class="bond-10 atom-10 atom-11" d="M 353.7,112.5 L 352.0,113.6" style="fill:none;fill-rule:evenodd;stroke:#000000;stroke-width:1.0px;stroke-linecap:butt;stroke-linejoin:miter;stroke-opacity:1"/>
<path class="bond-10 atom-10 atom-11" d="M 355.8,115.2 L 353.7,116.7" style="fill:none;fill-rule:evenodd;stroke:#000000;stroke-width:1.0px;stroke-linecap:butt;stroke-linejoin:miter;stroke-opacity:1"/>
<path class="bond-10 atom-10 atom-11" d="M 358.0,118.0 L 355.4,119.7" style="fill:none;fill-rule:evenodd;stroke:#000000;stroke-width:1.0px;stroke-linecap:butt;stroke-linejoin:miter;stroke-opacity:1"/>
<path class="bond-10 atom-10 atom-11" d="M 360.1,120.7 L 357.1,122.8" style="fill:none;fill-rule:evenodd;stroke:#000000;stroke-width:1.0px;stroke-linecap:butt;stroke-linejoin:miter;stroke-opacity:1"/>
<path class="bond-11 atom-10 atom-12" d="M 345.1,101.4 L 356.0,79.6" style="fill:none;fill-rule:evenodd;stroke:#000000;stroke-width:2.0px;stroke-linecap:butt;stroke-linejoin:miter;stroke-opacity:1"/>
<path class="bond-12 atom-12 atom-13" d="M 358.1,79.5 L 352.6,71.1" style="fill:none;fill-rule:evenodd;stroke:#000000;stroke-width:2.0px;stroke-linecap:butt;stroke-linejoin:miter;stroke-opacity:1"/>
<path class="bond-12 atom-12 atom-13" d="M 352.6,71.1 L 347.0,62.7" style="fill:none;fill-rule:evenodd;stroke:#FF0000;stroke-width:2.0px;stroke-linecap:butt;stroke-linejoin:miter;stroke-opacity:1"/>
<path class="bond-12 atom-12 atom-13" d="M 355.1,81.5 L 349.5,73.1" style="fill:none;fill-rule:evenodd;stroke:#000000;stroke-width:2.0px;stroke-linecap:butt;stroke-linejoin:miter;stroke-opacity:1"/>
<path class="bond-12 atom-12 atom-13" d="M 349.5,73.1 L 343.9,64.7" style="fill:none;fill-rule:evenodd;stroke:#FF0000;stroke-width:2.0px;stroke-linecap:butt;stroke-linejoin:miter;stroke-opacity:1"/>
<path class="bond-13 atom-12 atom-14" d="M 356.0,79.6 L 366.2,79.0" style="fill:none;fill-rule:evenodd;stroke:#000000;stroke-width:2.0px;stroke-linecap:butt;stroke-linejoin:miter;stroke-opacity:1"/>
<path class="bond-13 atom-12 atom-14" d="M 366.2,79.0 L 376.4,78.3" style="fill:none;fill-rule:evenodd;stroke:#FF0000;stroke-width:2.0px;stroke-linecap:butt;stroke-linejoin:miter;stroke-opacity:1"/>
<path class="bond-14 atom-9 atom-4" d="M 285.6,126.2 L 272.1,105.9" style="fill:none;fill-rule:evenodd;stroke:#000000;stroke-width:2.0px;stroke-linecap:butt;stroke-linejoin:miter;stroke-opacity:1"/>
<path d="M 247.1,106.4 L 247.8,107.4 L 249.0,107.3" style="fill:none;stroke:#000000;stroke-width:2.0px;stroke-linecap:butt;stroke-linejoin:miter;stroke-opacity:1;"/>
<path d="M 282.5,85.2 L 283.0,84.1 L 284.2,84.0" style="fill:none;stroke:#000000;stroke-width:2.0px;stroke-linecap:butt;stroke-linejoin:miter;stroke-opacity:1;"/>
<path d="M 306.1,82.7 L 307.3,82.6 L 308.0,83.6" style="fill:none;stroke:#000000;stroke-width:2.0px;stroke-linecap:butt;stroke-linejoin:miter;stroke-opacity:1;"/>
<path d="M 310.5,123.6 L 309.9,124.7 L 308.7,124.8" style="fill:none;stroke:#000000;stroke-width:2.0px;stroke-linecap:butt;stroke-linejoin:miter;stroke-opacity:1;"/>
<path d="M 286.8,126.2 L 285.6,126.2 L 284.9,125.2" style="fill:none;stroke:#000000;stroke-width:2.0px;stroke-linecap:butt;stroke-linejoin:miter;stroke-opacity:1;"/>
<path d="M 343.9,101.5 L 345.1,101.4 L 345.7,100.3" style="fill:none;stroke:#000000;stroke-width:2.0px;stroke-linecap:butt;stroke-linejoin:miter;stroke-opacity:1;"/>
<path d="M 355.5,80.7 L 356.0,79.6 L 356.5,79.6" style="fill:none;stroke:#000000;stroke-width:2.0px;stroke-linecap:butt;stroke-linejoin:miter;stroke-opacity:1;"/>
<path class="atom-13" d="M 339.4 59.3 Q 339.4 57.6, 340.2 56.7 Q 341.0 55.8, 342.6 55.8 Q 344.1 55.8, 344.9 56.7 Q 345.7 57.6, 345.7 59.3 Q 345.7 61.0, 344.9 61.9 Q 344.1 62.9, 342.6 62.9 Q 341.0 62.9, 340.2 61.9 Q 339.4 61.0, 339.4 59.3 M 342.6 62.1 Q 343.6 62.1, 344.2 61.4 Q 344.7 60.7, 344.7 59.3 Q 344.7 57.9, 344.2 57.2 Q 343.6 56.6, 342.6 56.6 Q 341.5 56.6, 340.9 57.2 Q 340.4 57.9, 340.4 59.3 Q 340.4 60.7, 340.9 61.4 Q 341.5 62.1, 342.6 62.1 " fill="#FF0000"/>
<path class="atom-14" d="M 377.2 78.1 Q 377.2 76.5, 378.0 75.5 Q 378.8 74.6, 380.4 74.6 Q 381.9 74.6, 382.7 75.5 Q 383.5 76.5, 383.5 78.1 Q 383.5 79.8, 382.7 80.8 Q 381.9 81.7, 380.4 81.7 Q 378.8 81.7, 378.0 80.8 Q 377.2 79.8, 377.2 78.1 M 380.4 80.9 Q 381.4 80.9, 382.0 80.2 Q 382.5 79.5, 382.5 78.1 Q 382.5 76.8, 382.0 76.1 Q 381.4 75.4, 380.4 75.4 Q 379.3 75.4, 378.7 76.1 Q 378.2 76.8, 378.2 78.1 Q 378.2 79.5, 378.7 80.2 Q 379.3 80.9, 380.4 80.9 " fill="#FF0000"/>
<path class="atom-14" d="M 384.6 74.7 L 385.5 74.7 L 385.5 77.6 L 389.1 77.6 L 389.1 74.7 L 390.0 74.7 L 390.0 81.6 L 389.1 81.6 L 389.1 78.4 L 385.5 78.4 L 385.5 81.6 L 384.6 81.6 L 384.6 74.7 " fill="#FF0000"/>
<path class="note" d="M 339.0 109.2 Q 339.0 108.5, 339.2 108.0 Q 339.4 107.4, 339.8 106.8 L 340.1 106.9 Q 339.7 107.5, 339.6 108.0 Q 339.4 108.6, 339.4 109.2 Q 339.4 109.9, 339.6 110.4 Q 339.7 110.9, 340.1 111.5 L 339.8 111.7 Q 339.4 111.1, 339.2 110.5 Q 339.0 109.9, 339.0 109.2 " fill="#000000"/>
<path class="note" d="M 342.2 110.6 L 341.4 109.2 L 341.4 109.2 L 340.8 109.2 L 340.8 110.6 L 340.3 110.6 L 340.3 107.2 L 341.4 107.2 Q 341.9 107.2, 342.2 107.4 Q 342.5 107.7, 342.5 108.2 Q 342.5 108.5, 342.4 108.8 Q 342.2 109.0, 341.8 109.1 L 342.7 110.6 L 342.2 110.6 M 340.8 108.8 L 341.4 108.8 Q 341.7 108.8, 341.9 108.7 Q 342.0 108.5, 342.0 108.2 Q 342.0 107.9, 341.9 107.7 Q 341.7 107.6, 341.4 107.6 L 340.8 107.6 L 340.8 108.8 " fill="#000000"/>
<path class="note" d="M 344.0 109.2 Q 344.0 109.9, 343.8 110.5 Q 343.6 111.1, 343.2 111.7 L 343.0 111.5 Q 343.3 110.9, 343.4 110.4 Q 343.6 109.9, 343.6 109.2 Q 343.6 108.6, 343.4 108.0 Q 343.3 107.5, 343.0 106.9 L 343.2 106.8 Q 343.6 107.4, 343.8 108.0 Q 344.0 108.5, 344.0 109.2 " fill="#000000"/>
<path class="legend" d="M 266.7 174.7 L 268.2 174.7 L 268.2 186.1 L 266.7 186.1 L 266.7 174.7 " fill="#000000"/>
<path class="legend" d="M 274.1 177.7 Q 275.8 177.7, 276.8 178.8 Q 277.7 179.8, 277.7 181.8 Q 277.7 183.9, 276.6 185.1 Q 275.5 186.2, 273.5 186.2 Q 272.2 186.2, 271.0 185.7 L 270.3 185.6 L 270.3 173.9 L 271.8 173.9 L 271.8 178.8 Q 272.6 177.7, 274.1 177.7 M 273.5 185.0 Q 274.7 185.0, 275.5 184.2 Q 276.2 183.3, 276.2 181.8 Q 276.2 180.4, 275.6 179.7 Q 275.0 178.9, 274.0 178.9 Q 273.2 178.9, 272.6 179.3 Q 272.0 179.8, 271.8 180.6 L 271.8 184.8 Q 272.6 185.0, 273.5 185.0 " fill="#000000"/>
<path class="legend" d="M 286.1 177.9 L 286.1 186.1 L 284.8 186.1 L 284.7 184.9 Q 283.6 186.2, 281.9 186.2 Q 280.5 186.2, 279.8 185.5 Q 279.1 184.7, 279.1 183.3 L 279.1 177.9 L 280.6 177.9 L 280.6 183.2 Q 280.6 184.2, 281.0 184.6 Q 281.3 185.0, 282.2 185.0 Q 282.9 185.0, 283.5 184.7 Q 284.2 184.4, 284.6 183.7 L 284.6 177.9 L 286.1 177.9 " fill="#000000"/>
<path class="legend" d="M 291.8 177.7 Q 293.5 177.7, 294.5 178.8 Q 295.4 179.8, 295.4 181.8 Q 295.4 183.9, 294.3 185.1 Q 293.2 186.2, 291.2 186.2 Q 290.3 186.2, 289.5 186.0 L 289.5 190.0 L 288.0 190.0 L 288.0 177.9 L 289.2 177.9 L 289.4 178.8 Q 289.8 178.3, 290.5 178.0 Q 291.1 177.7, 291.8 177.7 M 291.2 185.0 Q 292.5 185.0, 293.2 184.2 Q 293.9 183.3, 293.9 181.8 Q 293.9 180.4, 293.3 179.7 Q 292.8 178.9, 291.7 178.9 Q 290.9 178.9, 290.3 179.3 Q 289.8 179.8, 289.5 180.5 L 289.5 184.8 Q 290.3 185.0, 291.2 185.0 " fill="#000000"/>
<path class="legend" d="M 298.0 177.9 L 298.2 179.0 Q 299.0 177.7, 300.5 177.7 Q 300.9 177.7, 301.5 177.9 L 301.3 179.2 Q 300.6 179.1, 300.2 179.1 Q 299.5 179.1, 299.1 179.3 Q 298.6 179.6, 298.3 180.2 L 298.3 186.1 L 296.8 186.1 L 296.8 177.9 L 298.0 177.9 " fill="#000000"/>
<path class="legend" d="M 302.4 182.0 Q 302.4 180.0, 303.4 178.8 Q 304.4 177.7, 306.3 177.7 Q 308.2 177.7, 309.2 178.8 Q 310.2 180.0, 310.2 182.0 Q 310.2 184.0, 309.2 185.1 Q 308.2 186.2, 306.3 186.2 Q 304.4 186.2, 303.4 185.1 Q 302.4 184.0, 302.4 182.0 M 303.9 182.0 Q 303.9 183.5, 304.5 184.2 Q 305.1 185.0, 306.3 185.0 Q 307.4 185.0, 308.0 184.2 Q 308.6 183.5, 308.6 182.0 Q 308.6 180.4, 308.0 179.7 Q 307.4 178.9, 306.3 178.9 Q 305.1 178.9, 304.5 179.7 Q 303.9 180.4, 303.9 182.0 " fill="#000000"/>
<path class="legend" d="M 311.5 179.0 L 311.5 177.9 L 313.0 177.9 L 313.0 176.6 Q 313.0 175.2, 313.7 174.6 Q 314.5 173.9, 315.6 173.9 Q 316.2 173.9, 316.6 174.0 Q 317.1 174.1, 317.6 174.4 L 317.1 175.4 Q 316.4 175.1, 315.8 175.1 Q 315.2 175.1, 314.8 175.5 Q 314.5 175.9, 314.5 176.5 L 314.5 177.9 L 317.0 177.9 L 317.0 179.0 L 314.5 179.0 L 314.5 188.6 L 313.0 188.6 L 313.0 179.0 L 311.5 179.0 " fill="#000000"/>
<path class="legend" d="M 317.8 182.0 Q 317.8 179.9, 318.8 178.8 Q 319.8 177.7, 321.6 177.7 Q 323.5 177.7, 324.3 178.8 Q 325.1 179.9, 325.1 181.9 L 325.1 182.2 L 319.3 182.2 Q 319.4 183.6, 320.0 184.3 Q 320.6 185.0, 321.8 185.0 Q 322.4 185.0, 323.0 184.9 Q 323.6 184.7, 324.3 184.4 L 324.7 185.4 Q 323.9 185.8, 323.2 186.0 Q 322.5 186.2, 321.7 186.2 Q 319.8 186.2, 318.8 185.1 Q 317.8 184.0, 317.8 182.0 M 321.6 178.9 Q 320.7 178.9, 320.1 179.4 Q 319.6 180.0, 319.4 181.0 L 323.5 181.0 Q 323.4 179.9, 322.9 179.4 Q 322.5 178.9, 321.6 178.9 " fill="#000000"/>
<path class="legend" d="M 330.6 177.7 Q 331.9 177.7, 332.6 178.5 Q 333.3 179.2, 333.3 180.6 L 333.3 186.1 L 331.8 186.1 L 331.8 180.8 Q 331.8 179.8, 331.4 179.3 Q 331.0 178.9, 330.2 178.9 Q 329.5 178.9, 328.8 179.2 Q 328.2 179.6, 327.8 180.2 L 327.8 186.1 L 326.3 186.1 L 326.3 177.9 L 327.5 177.9 L 327.7 179.0 Q 328.8 177.7, 330.6 177.7 " fill="#000000"/>
</svg>